name rise44.8762peak52.3436fall86.788.mot
datacolumns 19
datarows 21
range 10.42662600000000 10.45995500000000
endheader
time	ground_force1_vx	ground_force1_vy	ground_force1_vz	ground_force1_px	ground_force1_py	ground_force1_pz	ground_force2_vx	ground_force2_vy	ground_force2_vz	ground_force2_px	ground_force2_py	ground_force2_pz	ground_torque1_x	ground_torque1_y	ground_torque1_z	ground_torque2_x	ground_torque2_y	ground_torque2_z	
10.42662600000000	0.46958700000000	719.27214800000002	41.08605500000000	0.15803000000000	0.00000000000000	0.11494300000000	0.00000000000000	0.00000000000000	0.00000000000000	0.00000000000000	0.00000000000000	0.00000000000000	0.00000000000000	12.48586600000000	0.00000000000000	0.00000000000000	0.00000000000000	0.00000000000000	
10.42829400000000	-0.11522700000000	720.17675399999996	41.15130700000000	0.15686200000000	0.00000000000000	0.11498900000000	0.00000000000000	0.00000000000000	0.00000000000000	0.00000000000000	0.00000000000000	0.00000000000000	0.00000000000000	12.58109700000000	0.00000000000000	0.00000000000000	0.00000000000000	0.00000000000000	
10.42995800000000	-0.70809800000000	721.08487100000002	41.22053500000000	0.15569300000000	0.00000000000000	0.11503500000000	0.00000000000000	0.00000000000000	0.00000000000000	0.00000000000000	0.00000000000000	0.00000000000000	0.00000000000000	12.67990700000000	0.00000000000000	0.00000000000000	0.00000000000000	0.00000000000000	
10.43162300000000	-1.30878200000000	721.99606200000005	41.29355400000000	0.15452600000000	0.00000000000000	0.11508100000000	0.00000000000000	0.00000000000000	0.00000000000000	0.00000000000000	0.00000000000000	0.00000000000000	0.00000000000000	12.78218700000000	0.00000000000000	0.00000000000000	0.00000000000000	0.00000000000000	
10.43329700000000	-1.91701800000000	722.90998100000002	41.37018000000000	0.15336000000000	0.00000000000000	0.11512900000000	0.00000000000000	0.00000000000000	0.00000000000000	0.00000000000000	0.00000000000000	0.00000000000000	0.00000000000000	12.88782500000000	0.00000000000000	0.00000000000000	0.00000000000000	0.00000000000000	
10.43495400000000	-2.53252900000000	723.82636900000000	41.45022800000000	0.15219900000000	0.00000000000000	0.11517600000000	0.00000000000000	0.00000000000000	0.00000000000000	0.00000000000000	0.00000000000000	0.00000000000000	0.00000000000000	12.99670500000000	0.00000000000000	0.00000000000000	0.00000000000000	0.00000000000000	
10.43663000000000	-3.15502400000000	724.74505299999998	41.53351600000000	0.15104200000000	0.00000000000000	0.11522300000000	0.00000000000000	0.00000000000000	0.00000000000000	0.00000000000000	0.00000000000000	0.00000000000000	0.00000000000000	13.10870600000000	0.00000000000000	0.00000000000000	0.00000000000000	0.00000000000000	
10.43829600000000	-3.78419800000000	725.66594599999996	41.61986100000000	0.14989100000000	0.00000000000000	0.11527100000000	0.00000000000000	0.00000000000000	0.00000000000000	0.00000000000000	0.00000000000000	0.00000000000000	0.00000000000000	13.22370400000000	0.00000000000000	0.00000000000000	0.00000000000000	0.00000000000000	
10.43996000000000	-4.41973700000000	726.58903999999995	41.70908300000000	0.14874600000000	0.00000000000000	0.11531800000000	0.00000000000000	0.00000000000000	0.00000000000000	0.00000000000000	0.00000000000000	0.00000000000000	0.00000000000000	13.34156900000000	0.00000000000000	0.00000000000000	0.00000000000000	0.00000000000000	
10.44162900000000	-5.06131500000000	727.51441000000000	41.80100200000000	0.14760900000000	0.00000000000000	0.11536600000000	0.00000000000000	0.00000000000000	0.00000000000000	0.00000000000000	0.00000000000000	0.00000000000000	0.00000000000000	13.46217000000000	0.00000000000000	0.00000000000000	0.00000000000000	0.00000000000000	
10.44330100000000	-5.70860200000000	728.44220299999995	41.89544300000000	0.14648000000000	0.00000000000000	0.11541300000000	0.00000000000000	0.00000000000000	0.00000000000000	0.00000000000000	0.00000000000000	0.00000000000000	0.00000000000000	13.58537000000000	0.00000000000000	0.00000000000000	0.00000000000000	0.00000000000000	
10.44496000000000	-6.36125600000000	729.37264100000004	41.99223000000000	0.14536000000000	0.00000000000000	0.11546000000000	0.00000000000000	0.00000000000000	0.00000000000000	0.00000000000000	0.00000000000000	0.00000000000000	0.00000000000000	13.71103100000000	0.00000000000000	0.00000000000000	0.00000000000000	0.00000000000000	
10.44662200000000	-7.01893600000000	730.30601200000001	42.09119300000000	0.14425000000000	0.00000000000000	0.11550600000000	0.00000000000000	0.00000000000000	0.00000000000000	0.00000000000000	0.00000000000000	0.00000000000000	0.00000000000000	13.83900900000000	0.00000000000000	0.00000000000000	0.00000000000000	0.00000000000000	
10.44828800000000	-7.68129300000000	731.24266999999998	42.19216400000000	0.14315000000000	0.00000000000000	0.11555200000000	0.00000000000000	0.00000000000000	0.00000000000000	0.00000000000000	0.00000000000000	0.00000000000000	0.00000000000000	13.96916000000000	0.00000000000000	0.00000000000000	0.00000000000000	0.00000000000000	
10.44995400000000	-8.34797600000000	732.18302500000004	42.29497800000000	0.14206100000000	0.00000000000000	0.11559800000000	0.00000000000000	0.00000000000000	0.00000000000000	0.00000000000000	0.00000000000000	0.00000000000000	0.00000000000000	14.10133400000000	0.00000000000000	0.00000000000000	0.00000000000000	0.00000000000000	
10.45162900000000	-9.01863600000000	733.12754399999994	42.39947500000000	0.14098200000000	0.00000000000000	0.11564300000000	0.00000000000000	0.00000000000000	0.00000000000000	0.00000000000000	0.00000000000000	0.00000000000000	0.00000000000000	14.23537900000000	0.00000000000000	0.00000000000000	0.00000000000000	0.00000000000000	
10.45329500000000	-9.69291800000000	734.07674299999996	42.50549800000000	0.13991500000000	0.00000000000000	0.11568700000000	0.00000000000000	0.00000000000000	0.00000000000000	0.00000000000000	0.00000000000000	0.00000000000000	0.00000000000000	14.37114200000000	0.00000000000000	0.00000000000000	0.00000000000000	0.00000000000000	
10.45496100000000	-10.37047200000000	735.03117799999995	42.61289700000000	0.13885900000000	0.00000000000000	0.11573100000000	0.00000000000000	0.00000000000000	0.00000000000000	0.00000000000000	0.00000000000000	0.00000000000000	0.00000000000000	14.50846600000000	0.00000000000000	0.00000000000000	0.00000000000000	0.00000000000000	
10.45662200000000	-11.05094600000000	735.99144600000000	42.72152300000000	0.13781400000000	0.00000000000000	0.11577300000000	0.00000000000000	0.00000000000000	0.00000000000000	0.00000000000000	0.00000000000000	0.00000000000000	0.00000000000000	14.64719000000000	0.00000000000000	0.00000000000000	0.00000000000000	0.00000000000000	
10.45829500000000	-11.73399100000000	736.95817499999998	42.83123600000000	0.13678100000000	0.00000000000000	0.11581500000000	0.00000000000000	0.00000000000000	0.00000000000000	0.00000000000000	0.00000000000000	0.00000000000000	0.00000000000000	14.78715500000000	0.00000000000000	0.00000000000000	0.00000000000000	0.00000000000000	
10.45995500000000	-12.41925900000000	737.93201999999997	42.94189800000000	0.13575900000000	0.00000000000000	0.11585700000000	0.00000000000000	0.00000000000000	0.00000000000000	0.00000000000000	0.00000000000000	0.00000000000000	0.00000000000000	14.92819600000000	0.00000000000000	0.00000000000000	0.00000000000000	0.00000000000000	
